<?xml version="1.0" encoding="UTF-8" standalone="no"?>
<!-- Generator: visioncortex VTracer 0.6.4 -->

<svg
   version="1.1"
   width="555.64697"
   height="220"
   id="svg748"
   sodipodi:docname="mira_logo3.svg"
   inkscape:version="1.4 (e7c3feb1, 2024-10-09)"
   xml:space="preserve"
   inkscape:export-filename="mira_logo2.png"
   inkscape:export-xdpi="128"
   inkscape:export-ydpi="128"
   xmlns:inkscape="http://www.inkscape.org/namespaces/inkscape"
   xmlns:sodipodi="http://sodipodi.sourceforge.net/DTD/sodipodi-0.dtd"
   xmlns:xlink="http://www.w3.org/1999/xlink"
   xmlns="http://www.w3.org/2000/svg"
   xmlns:svg="http://www.w3.org/2000/svg"><defs
     id="defs748"><linearGradient
       id="linearGradient13"
       inkscape:collect="always"><stop
         style="stop-color:#2f318b;stop-opacity:1;"
         offset="0.08597285"
         id="stop13" /><stop
         style="stop-color:#ecca91;stop-opacity:1;"
         offset="0.81900454"
         id="stop14" /></linearGradient><linearGradient
       inkscape:collect="always"
       xlink:href="#linearGradient13"
       id="linearGradient14"
       x1="253.26874"
       y1="403.22784"
       x2="278.78839"
       y2="435.89154"
       gradientUnits="userSpaceOnUse"
       gradientTransform="translate(-33.333737,-394.77489)" /></defs><sodipodi:namedview
     id="namedview748"
     pagecolor="#ffffff"
     bordercolor="#000000"
     borderopacity="0.25"
     inkscape:showpageshadow="2"
     inkscape:pageopacity="0.0"
     inkscape:pagecheckerboard="0"
     inkscape:deskcolor="#d1d1d1"
     inkscape:zoom="0.87535081"
     inkscape:cx="336.43654"
     inkscape:cy="11.995191"
     inkscape:window-width="1528"
     inkscape:window-height="858"
     inkscape:window-x="270"
     inkscape:window-y="166"
     inkscape:window-maximized="0"
     inkscape:current-layer="svg748"
     inkscape:export-bgcolor="#ffffff0b"
     showgrid="false"><inkscape:grid
       id="grid1"
       units="px"
       originx="0"
       originy="-20"
       spacingx="1"
       spacingy="1"
       empcolor="#0099e5"
       empopacity="0.30196078"
       color="#0099e5"
       opacity="0.14901961"
       empspacing="5"
       enabled="true"
       visible="false" /></sodipodi:namedview><path
     style="fill:#808080;stroke-width:0.999828"
     d="m 206.58956,198.12572 c -0.38112,-0.99288 0.0257,-3.71045 0.59793,-3.99411 0.30938,-0.15338 1.52646,-0.55675 2.70462,-0.89636 4.04162,-1.16501 7.59485,-5.47093 8.86093,-10.73793 0.96188,-4.00151 1.14556,-10.38072 1.36463,-47.39293 0.25099,-42.40685 -0.0917,-62.806693 -1.13667,-67.664343 -0.81893,-3.806927 -2.38039,-6.9431 -4.54952,-9.137704 -1.77313,-1.793953 -4.89348,-3.597046 -6.23739,-3.60428 -1.57285,-0.0073 -2.1316,-0.700707 -2.1316,-2.640936 0,-1.023663 0.12656,-1.862055 0.28125,-1.863094 0.15469,-10e-4 12.00937,-0.022 26.34375,-0.04668 l 26.0625,-0.04485 0.11549,1.76273 c 0.13972,2.132697 -0.25147,2.673197 -2.11569,2.923162 -3.58672,0.480914 -8.29112,4.062709 -10.16899,7.742388 -2.8397,5.564378 -3.19613,13.952494 -2.88463,67.887637 0.128,22.16429 0.40158,42.20449 0.60795,44.53376 1.01859,11.49672 4.20049,16.51883 11.71559,18.49117 1.478,0.38791 2.82092,0.9157 2.98428,1.17286 0.55467,0.87321 0.35373,3.55641 -0.28467,3.80132 -0.32624,0.12515 -12.14404,0.22754 -26.26177,0.22754 -21.52866,0 -25.70076,-0.0837 -25.86799,-0.51942 z"
     id="path8" /><path
     style="fill:#808080"
     d="m 84.329912,194.61387 c -2.31192,-4.89922 -5.1035,-11.0597 -10.83295,-23.90625 -6.38312,-14.31217 -8.77941,-19.6393 -10.33076,-22.96602 -0.813282,-1.74402 -1.478702,-3.22181 -1.478702,-3.28398 0,-0.0622 -0.68612,-1.60635 -1.5247,-3.43151 -0.83859,-1.82517 -1.7485,-3.82474 -2.02203,-4.44349 -0.27353,-0.61875 -0.93741,-2.09531 -1.4753,-3.28125 -0.53788,-1.18594 -1.41806,-3.12656 -1.95594,-4.3125 -0.53789,-1.18594 -1.20177,-2.6625 -1.475298,-3.28125 -0.273529,-0.61875 -1.183441,-2.61832 -2.022028,-4.44349 -0.838587,-1.82516 -1.524704,-3.3811 -1.524704,-3.45763 0,-0.0765 -0.402355,-1.03009 -0.894122,-2.11902 -0.491767,-1.08892 -1.437599,-3.24549 -2.101849,-4.79236 -0.66425,-1.54688 -1.780645,-4.05098 -2.480878,-5.56468 -0.700233,-1.51369 -1.273151,-2.8165 -1.273151,-2.89513 0,-0.0786 -0.402978,-1.0339 -0.895507,-2.12283 -0.492529,-1.08892 -1.269429,-2.82361 -1.726444,-3.85486 -0.457015,-1.03125 -1.301735,-2.8875 -1.877155,-4.125 -0.57542,-1.237499 -1.466534,-3.178132 -1.980254,-4.312502 -0.513719,-1.13437 -1.4327,-3.15938 -2.042179,-4.5 -0.609479,-1.34063 -1.345159,-2.98594 -1.634844,-3.65625 -0.289685,-0.67031 -0.639859,-1.21875 -0.778164,-1.21875 -0.28848,0 -0.547078,2.79877 -1.091439,11.8125 -0.21175,3.506252 -0.53993,8.653122 -0.729289,11.437502 -0.771334,11.34191 -1.137705,16.77098 -1.48674,22.03125 -0.788659,11.88581 -1.388487,20.63226 -2.269556,33.09375 -1.53977,21.7779 -1.523969,24.72474 0.150287,28.02873 1.842563,3.63612 6.743782,7.42926 11.048248,8.55043 1.146953,0.29875 2.231176,0.68898 2.409386,0.86719 0.178209,0.17821 0.271622,1.14912 0.207583,2.15758 L 40.125,198.45762 H 20.0625 0 v -2.05253 -2.05252 l 2.549175,-0.66775 c 3.080658,-0.80697 5.159895,-1.82984 7.332235,-3.60708 2.007838,-1.64265 4.256641,-4.89226 5.10639,-7.37893 0.895824,-2.62151 1.810016,-12.55436 3.57138,-38.80369 0.492886,-7.3454 1.049807,-15.30461 1.508768,-21.5625 0.632523,-8.6244 1.086093,-15.22394 1.494821,-21.75 0.219597,-3.50625 0.560254,-8.737499 0.757015,-11.625002 1.099307,-16.132481 1.179227,-19.038159 0.610774,-22.206159 -0.304078,-1.69464 -0.945152,-3.86663 -1.424607,-4.82665 -1.624097,-3.25194 -5.725955,-6.15517 -10.250964,-7.25548 -1.028507,-0.25009 -2.083195,-0.63164 -2.34375,-0.84788 -0.510531,-0.4237 -0.637968,-2.84078 -0.186745,-3.54196 0.199868,-0.31058 5.114396,-0.43123 17.900508,-0.43946 9.69375,-0.006 17.920611,0.0713 18.281914,0.17236 0.505081,0.14124 2.530586,3.67833 2.530586,4.41911 0,0.0765 0.686117,1.63247 1.524704,3.45763 0.838587,1.82517 1.748901,3.82474 2.022921,4.44349 1.136298,2.56581 2.060118,4.6643 3.301735,7.5 0.72246,1.649998 1.73551,3.928128 2.25122,5.062498 0.51572,1.13437 1.45136,3.24375 2.07921,4.687501 0.62785,1.44375 2.08175,4.61762 3.23088,7.05305 1.14913,2.43542 2.089332,4.487013 2.089332,4.559093 0,0.0721 0.73569,1.707579 1.63487,3.634449 0.89917,1.92688 2.18324,4.76903 2.85348,6.31591 0.67025,1.54687 1.44383,3.31875 1.71908,3.9375 0.27524,0.61875 2.2607,5.09062 4.41212,9.9375 3.93306,8.86072 15.67245,34.87426 20.30757,45 1.36898,2.99063 2.64529,5.59457 2.83625,5.78653 0.21345,0.21459 0.79264,-0.65212 1.50358,-2.25 4.544128,-10.21306 7.356448,-16.66936 8.224578,-18.88132 0.43868,-1.11776 1.10708,-2.72088 1.48532,-3.5625 0.37825,-0.84161 1.06334,-2.37396 1.52242,-3.40521 0.45909,-1.03125 1.23768,-2.76594 1.73021,-3.85486 0.49253,-1.08893 0.89551,-2.05501 0.89551,-2.14686 0,-0.0918 0.50625,-1.27233 1.125,-2.62328 0.61875,-1.35095 1.125,-2.53143 1.125,-2.62328 0,-0.0918 0.40886,-1.06085 0.90858,-2.15334 0.49971,-1.0925 1.2679,-2.89797 1.70707,-4.01216 0.43917,-1.11419 1.10598,-2.71439 1.48179,-3.55601 0.37581,-0.84161 1.39438,-3.21771 2.26348,-5.28021 1.95647,-4.64299 5.66817,-13.14139 7.74357,-17.72986 0.49253,-1.08893 0.89551,-2.054239 0.89551,-2.145139 0,-0.0909 0.4015,-1.056213 0.89221,-2.145143 1.59,-3.52826 4.52215,-10.32692 10.55779,-24.479859 3.25441,-7.63125 6.1017,-14.06837 6.3273,-14.30471 0.48422,-0.50725 35.75686,-0.95816 36.0641,-0.46103 0.10323,0.16703 0.0761,1.1453 -0.0604,2.17394 l -0.2481,1.87025 -2.11019,0.42997 c -2.79765,0.57005 -6.12044,2.36612 -7.784,4.20748 -1.87702,2.07764 -3.40374,5.5878 -3.83997,8.8287 -0.44914,3.33674 0.089,14.070079 1.45121,28.942901 0.19835,2.16562 0.70767,8.07187 1.13183,13.125 0.42416,5.05313 1.09873,12.9 1.49903,17.4375 0.40031,4.5375 0.90574,10.35937 1.12318,12.9375 0.21743,2.57812 0.55632,6.45938 0.75308,8.625 0.19676,2.16562 0.86514,9.75937 1.48528,16.875 0.62015,7.11563 1.32422,13.95 1.5646,15.1875 1.17386,6.04307 4.88324,10.63527 10.06715,12.4631 0.72238,0.25471 1.67243,0.46565 2.11124,0.46875 1.21936,0.009 1.69518,0.88363 1.56766,2.88276 l -0.11549,1.81039 h -25.68751 -25.6875 v -2.20722 -2.20723 l 2.0625,-0.52553 c 4.39041,-1.11868 7.81285,-4.17049 9.41983,-8.39971 1.15345,-3.03564 1.52511,-8.33587 1.07621,-15.34781 -0.54764,-8.55428 -1.32694,-19.19688 -2.63606,-36 -0.40976,-5.25937 -0.99296,-13.27776 -1.296,-17.81864 -0.54411,-8.15304 -1.69924,-23.49655 -2.42748,-32.243862 -0.20604,-2.475 -0.3773,-5.04314 -0.38056,-5.706981 -0.009,-1.91856 -0.80948,-1.14912 -2.147,2.064871 -2.25351,5.41506 -8.01445,19.013202 -8.53334,20.142112 -0.2844,0.61875 -0.87656,2.03953 -1.31592,3.15729 -0.43935,1.11776 -1.11871,2.73448 -1.50968,3.59271 -0.39097,0.85823 -1.07018,2.47203 -1.50935,3.58622 -0.43917,1.11419 -1.20736,2.91966 -1.70707,4.01216 -0.49972,1.09249 -0.90858,2.06149 -0.90858,2.15334 0,0.0918 -0.50625,1.27233 -1.125,2.62328 -0.61875,1.35095 -1.125,2.53143 -1.125,2.62328 0,0.0918 -0.40298,1.05793 -0.89551,2.14686 -1.82154,4.02722 -2.44019,5.43923 -3.98915,9.10486 -0.87153,2.0625 -1.89209,4.4386 -2.2679,5.28021 -0.37581,0.84162 -1.04262,2.44182 -1.48179,3.55601 -0.43917,1.11419 -1.20736,2.91966 -1.70707,4.01216 -0.49972,1.09249 -0.90858,2.06072 -0.90858,2.15162 0,0.0909 -0.42188,1.0984 -0.9375,2.23889 -0.51563,1.14048 -1.35938,3.00674 -1.875,4.14722 -0.51563,1.14049 -0.9375,2.14799 -0.9375,2.23889 0,0.0909 -0.40533,1.05621 -0.90074,2.14514 -0.4954,1.08892 -1.61317,3.66736 -2.48392,5.72986 -0.87076,2.0625 -1.98418,4.64094 -2.47427,5.72986 -0.49009,1.08893 -0.89107,2.05501 -0.89107,2.14686 0,0.0918 -0.50625,1.27233 -1.125,2.62328 -0.61875,1.35095 -1.125,2.53143 -1.125,2.62328 0,0.0918 -0.40363,1.05793 -0.89695,2.14686 -1.36273,3.00802 -5.823278,13.31349 -6.862498,15.85486 -0.50604,1.2375 -1.19319,2.46094 -1.52699,2.71875 -0.38619,0.29828 -1.88159,0.46875 -4.11188,0.46875 h -3.50498 z"
     id="path7" /><path
     style="fill:#515257;fill-opacity:1"
     d="m 400.41403,193.32047 c 8.93588,-4.15068 15.59098,-12.23099 18.67103,-21.51693 14.433,-35.7183 29.44863,-71.18016 43.77027,-106.944691 2.30613,-5.10724 4.09379,-10.49098 6.81278,-15.38225 4.62434,-0.42415 12.23917,-2.18049 13.35347,4.14107 8.75478,20.796608 17.44688,41.608431 26.41591,62.324751 8.2199,18.60229 15.68384,37.53029 23.90895,56.12631 3.8117,7.7313 7.31667,17.85092 16.28087,20.10587 3.59118,0.90337 9.04362,5.13017 3.93971,6.60996 -17.75628,0.37184 -35.53016,0.31831 -53.28641,0.008 -3.94347,-6.91366 6.73304,-4.64287 8.30995,-9.96912 3.19835,-6.61099 -1.04888,-13.61449 -3.33747,-19.7996 -2.74025,-6.36879 -5.0011,-12.98887 -8.20789,-19.12866 -19.44543,0.11769 -38.9065,-0.30314 -58.33936,0.34298 -2.35538,3.25096 -3.29059,7.82573 -4.9775,11.63116 -2.54691,7.97689 -7.62978,15.66037 -6.42697,24.34785 0.33622,6.92221 10.82409,4.8202 11.26112,9.98337 -0.0603,1.44725 -1.31283,2.83388 -1.31283,2.83388 0,0 -6.88685,-0.0948 -11.5106,-0.0343 -6.25022,0.0818 -16.70107,-0.0831 -25.05157,-0.021 m -41.88587,-50.99203 c -5.71605,-1.92886 -11.63584,-0.74658 -17.47266,-0.564 -9.39241,-0.38895 -19.05763,-0.92559 -27.56475,-5.38326 -4.32524,-1.09443 -1.07297,8.2088 -2.12475,11.39859 0.24718,9.63483 -0.68913,19.40677 0.96939,28.93957 1.45736,6.44563 7.32973,10.72202 13.64114,11.66231 1.52555,4.83827 -2.5247,5.65891 -6.69403,4.92554 -15.21217,0.041 -30.44246,0.24422 -45.64312,-0.33391 -3.70595,-6.25638 6.35612,-5.0033 8.7883,-9.01328 5.30519,-6.01169 3.7257,-14.58028 4.23374,-21.9437 0.22625,-32.14856 0.65047,-64.31063 -0.16744,-96.452971 0.42842,-6.43578 -2.69874,-13.50284 -9.16245,-15.66365 -2.63713,-0.43369 -4.68228,-1.14309 -3.99774,-4.12452 -0.9728,-2.78312 2.52897,-1.30308 4.09881,-1.66369 24.73583,0.087 49.48059,-0.25111 74.20886,0.35901 8.35673,1.07384 17.03493,2.84836 23.49164,8.69397 10.75807,7.57947 18.58235,19.586409 19.44592,32.891722 1.37163,12.950549 -2.3282,26.800659 -10.22441,36.778779 -5.16917,6.53207 -12.27636,10.20845 -18.79256,14.58965 -0.93622,1.32817 -0.62804,3.14526 0.34681,4.35487 m 127.50517,-6.64813 c -7.90141,-20.10668 -17.02317,-39.74087 -24.91167,-59.860872 -1.99716,-6.606801 -4.20609,5.53915 -5.80063,7.7412 -6.96094,17.400172 -14.07841,34.766902 -20.66472,52.318552 16.74376,0.40799 33.51742,0.4158 50.26372,0.0388 z m -143.5625,-4.80085 c 13.2355,-2.66546 23.85429,-13.35093 27.72105,-26.11442 4.55325,-13.43703 1.2067,-29.313892 -8.75644,-39.503801 -8.07791,-8.81335 -20.50557,-12.443 -32.18918,-11.01945 -18.89812,1.35815 -34.23194,19.715219 -33.24321,38.437591 -0.74267,15.07979 8.7576,29.83453 22.49063,35.92606 7.4151,3.58186 16.0116,3.27666 23.97715,2.27402 z"
     id="path1"
     sodipodi:nodetypes="cccccccsccccccccccsccccccccccccccccccsccccccccccccccc" /><path
     id="path12"
     style="fill:#515257;fill-opacity:1"
     d="m 362.61761,142.43357 -20.53341,-1.38524 c 1.24004,0.34518 2.5114,0.64453 3.83467,0.87337 2.78786,0.48214 2.96566,0.65265 7.81968,7.46907 5.72708,8.04245 5.58371,7.79793 4.97874,8.43432 -0.35211,0.37041 -0.6203,1.59435 -0.75015,3.42995 -0.17327,2.44956 -0.0735,3.10895 0.70864,4.67157 0.50109,1.0011 1.10641,2.05674 1.34516,2.34586 0.23874,0.28913 1.4249,2.031 2.63613,3.86982 1.21123,1.83881 4.6649,6.89212 7.67365,11.22948 3.00875,4.33735 6.32757,9.12317 7.377,10.63589 1.04943,1.51271 2.08528,3.02022 2.30122,3.34999 2.60905,3.98441 4.29449,5.84868 6.43619,7.11342 4.39934,2.59795 9.39949,1.77944 13.66181,-2.23393 2.00653,-1.88934 2.53125,-2.70525 3.37286,-5.25168 0.91618,-2.77206 0.0673,-6.43802 -2.10231,-9.08399 -1.0442,-1.27346 -3.46007,-4.56441 -4.7528,-6.47326 -0.282,-0.41637 -0.99088,-1.39712 -1.57563,-2.17936 -0.58475,-0.78223 -3.63944,-5.14804 -6.78817,-9.70156 -12.11481,-17.5198 -11.38927,-16.58242 -13.9508,-18.03071 -1.01052,-0.57134 -2.29264,-0.91811 -3.75258,-1.0166 l -2.21762,-0.14961 -2.01216,-2.67275 c -1.10695,-1.47003 -2.09928,-2.76319 -2.2061,-2.87376 -0.25062,-0.25938 -1.0121,-1.52876 -1.50402,-2.37029 z" /><path
     d="m 369.87895,98.26347 c -1.04409,0 -0.99043,-1.56329 -1.3603,-4.45085 -1.39838,-10.917142 -7.4288,-18.608193 -17.05019,-21.745413 -1.67797,-0.54713 -4.36621,-1.214988 -5.97386,-1.484138 -2.32899,-0.38991 -3.07203,-0.6788 -3.65625,-1.42152 -0.94901,-1.20647 -0.93216,-2.72698 0.044,-3.96794 0.6766,-0.86015 1.05286,-0.98807 2.90639,-0.98807 2.33836,0 5.96973,0.68987 8.87889,1.68677 11.5935,3.9728 18.25622,11.818628 20.6205,24.282119 1.14123,6.016042 0.57782,8.333092 -2.13323,8.773032 -1.12371,0.18236 -1.22446,-0.68399 -2.27593,-0.68399 z"
     style="fill:#515257;fill-opacity:1"
     id="path1-9"
     sodipodi:nodetypes="ssssssssssss" /><path
     style="fill:url(#linearGradient14);stroke-width:0.412;stroke-dasharray:none"
     d="m 232.23654,46.963424 c -0.13278,-0.33972 -0.52544,-1.63684 -0.87257,-2.88249 -1.02455,-3.676578 -3.78393,-8.910648 -5.89783,-11.187206 -2.56197,-2.75905 -6.01047,-4.97369 -10.25589,-6.58633 -1.87961,-0.71397 -3.33578,-1.43035 -3.2359,-1.59194 0.0999,-0.1616 0.78768,-0.4148 1.52845,-0.56271 0.74079,-0.14788 3.06896,-1.10638 5.17376,-2.12998 6.5839,-3.2019 10.29951,-8.01105 12.86368,-16.64959 l 0.9167,-3.08838 0.95012,3.27445 c 2.90167,10.00022 7.3664,14.8334 16.92018,18.31653 l 3.09302,1.12765 -2.60802,0.93776 c -9.39291,3.37737 -14.25906,8.292898 -17.14228,17.316176 -0.47041,1.47213 -0.93103,3.04721 -1.02362,3.50017 -0.13053,0.63843 -0.22265,0.6847 -0.4098,0.20589 z"
     id="path13" /></svg>
